<svg xmlns="http://www.w3.org/2000/svg" viewBox="0 0 64 64" role="img" aria-label="ResumePilot">
  <rect width="64" height="64" rx="15" fill="#171a14"/>
  <path d="M45 0h19v19H45z" fill="#b7e744"/>
  <path d="M14 44V19h11.2c6.4 0 10.4 3.5 10.4 9 0 3.8-2 6.7-5.2 8l6.4 8h-7.2l-5.2-7h-4.3v7H14Zm6.1-12.2h4.5c3.2 0 4.8-1.2 4.8-3.7 0-2.4-1.6-3.6-4.8-3.6h-4.5v7.3Z" fill="#f1f2e9"/>
  <path d="M39.2 44V19h9.7c7 0 11.1 3.7 11.1 9.7 0 6.1-4.1 9.8-11.1 9.8h-3.6V44h-6.1Zm6.1-11h3.1c3.6 0 5.4-1.4 5.4-4.3 0-2.8-1.8-4.2-5.4-4.2h-3.1V33Z" fill="#f1f2e9"/>
</svg>
